<svg viewBox="0 0 64 60" xmlns="http://www.w3.org/2000/svg" width="64" height="60">
  <defs>
    <linearGradient id="sfBody" x1="0" y1="0" x2="0" y2="1">
      <stop offset="0%" stop-color="rgba(55,95,160,0.97)"></stop>
      <stop offset="45%" stop-color="rgba(110,155,205,0.92)"></stop>
      <stop offset="100%" stop-color="rgba(205,225,245,0.90)"></stop>
    </linearGradient>
    <linearGradient id="sfFin" x1="0" y1="0" x2="0" y2="1">
      <stop offset="0%" stop-color="rgba(35,70,130,0.92)"></stop>
      <stop offset="100%" stop-color="rgba(75,115,175,0.75)"></stop>
    </linearGradient>
    <linearGradient id="hullTop" x1="0" y1="0" x2="0" y2="1">
      <stop offset="0%" stop-color="rgba(18,40,75,0.97)"></stop>
      <stop offset="100%" stop-color="rgba(28,58,100,0.92)"></stop>
    </linearGradient>
    <linearGradient id="hullBot" x1="0" y1="0" x2="0" y2="1">
      <stop offset="0%" stop-color="rgba(12,28,58,0.95)"></stop>
      <stop offset="100%" stop-color="rgba(8,18,40,0.98)"></stop>
    </linearGradient>
    <linearGradient id="mainSail" x1="0" y1="0" x2="1" y2="1">
      <stop offset="0%" stop-color="rgba(252,250,242,0.97)"></stop>
      <stop offset="100%" stop-color="rgba(218,212,196,0.90)"></stop>
    </linearGradient>
    <linearGradient id="jibSail" x1="0" y1="0" x2="1" y2="1">
      <stop offset="0%" stop-color="rgba(205,168,88,0.97)"></stop>
      <stop offset="100%" stop-color="rgba(158,122,52,0.90)"></stop>
    </linearGradient>
  </defs>
  <path d="M2 16.5 L18 13.5 L18 15.2 L4 17.8 Z" fill="rgba(175,200,225,0.92)" stroke="rgba(255,255,255,0.25)" stroke-width="0.3"></path>
  <path d="M18 13 C27 7.5 41 8.5 50 12.5 L50 15.5 C41 18.5 27 19 18 15.5 Z" fill="url(#sfBody)" stroke="rgba(255,255,255,0.18)" stroke-width="0.5"></path>
  <path d="M20 15 C28 17.5 41 17 49 15 L49 15.5 C41 18 28 18.5 20 15.8 Z" fill="rgba(225,238,252,0.38)"></path>
  <path d="M18 13 C27 7.5 41 8.5 50 12.5 L50 13 C41 9 27 8 18 13.5 Z" fill="rgba(30,60,110,0.45)"></path>
  <path d="M22 12.5 Q24 4.5 31 10.5 L29.5 12 Q24.5 7 23 13 Z" fill="url(#sfFin)" stroke="rgba(255,255,255,0.18)" stroke-width="0.4"></path>
  <path d="M44 12 Q46 9 48 12.5 L47 13 Q46 10.5 45 12.8 Z" fill="url(#sfFin)" stroke="rgba(255,255,255,0.15)" stroke-width="0.3"></path>
  <path d="M25 14.5 C23 17 19 21 20 22 C22 21 26 18 27.5 16 Z" fill="rgba(85,125,185,0.78)" stroke="rgba(255,255,255,0.18)" stroke-width="0.4"></path>
  <path d="M50 12.5 C54 10 59 7 62 5.5 C60 9 59 13 60 14 C59 15 60 19 62 22.5 C59 21 54 18 50 15.5 C52 14.2 52 13.8 50 12.5 Z" fill="url(#sfFin)" stroke="rgba(255,255,255,0.18)" stroke-width="0.4"></path>
  <path d="M21 13.2 Q35 11.2 49 13" stroke="rgba(255,255,255,0.50)" stroke-width="0.7" fill="none" stroke-dasharray="1.5,1.2"></path>
  <circle cx="20" cy="14" r="2.2" fill="rgba(8,18,38,0.95)"></circle>
  <circle cx="20" cy="14" r="1.5" fill="rgba(25,55,110,0.85)"></circle>
  <circle cx="19.2" cy="13.2" r="0.65" fill="rgba(255,255,255,0.88)"></circle>
  <line x1="30" y1="28" x2="17" y2="47" stroke="rgba(255,255,255,0.32)" stroke-width="0.55"></line>
  <line x1="30" y1="28" x2="44" y2="47" stroke="rgba(255,255,255,0.32)" stroke-width="0.55"></line>
  <path d="M30 31 L17 47 L30 47 Z" fill="url(#jibSail)" stroke="rgba(158,122,52,0.35)" stroke-width="0.6"></path>
  <path d="M30 28 L45 47 L30 47 Z" fill="url(#mainSail)" stroke="rgba(190,184,165,0.40)" stroke-width="0.6"></path>
  <line x1="30" y1="27" x2="30" y2="47" stroke="rgba(232,228,212,0.97)" stroke-width="1.8" stroke-linecap="round"></line>
  <line x1="24" y1="34" x2="36" y2="34" stroke="rgba(232,228,212,0.88)" stroke-width="1.0" stroke-linecap="round"></line>
  <circle cx="30" cy="27" r="1.3" fill="rgba(232,228,212,0.97)"></circle>
  <path d="M30 27 L35 24.5 L30 22 Z" fill="rgba(184,149,90,0.92)"></path>
  <line x1="30" y1="47" x2="46" y2="47" stroke="rgba(232,228,212,0.90)" stroke-width="1.4" stroke-linecap="round"></line>
  <path d="M17 47 Q30 46.2 44 47 L44 50 Q36 53.5 30 57.5 Q24 53.5 16 50 Z" fill="url(#hullBot)"></path>
  <path d="M17 47 Q30 46.2 44 47 L44 49.8 Q30 50.4 16 49.8 Z" fill="url(#hullTop)"></path>
  <path d="M17 49.6 Q30 50.2 44 49.8 L44 50.4 Q30 51 17 50.2 Z" fill="rgba(184,149,90,0.82)"></path>
  <path d="M17 47 Q30 46.2 44 47" stroke="rgba(255,255,255,0.50)" stroke-width="0.65" fill="none"></path>
  <path d="M26 52 Q28 55 30 57.5 Q32 55 34 52 Q32 54 30 55 Q28 54 26 52 Z" fill="rgba(8,20,42,0.97)" stroke="rgba(255,255,255,0.22)" stroke-width="0.5"></path>
  <path d="M14 50 Q11 51.5 8 52.5" stroke="rgba(255,255,255,0.30)" stroke-width="0.8" fill="none" stroke-linecap="round"></path>
  <path d="M44 50.2 Q48 51.5 52 51" stroke="rgba(255,255,255,0.28)" stroke-width="0.75" fill="none" stroke-linecap="round"></path>
</svg>